<svg id="Layer_1" data-name="Layer 1" xmlns="http://www.w3.org/2000/svg" width="45" height="45" viewBox="0 0 45 45"><defs><style>.cls-1{fill:#00b4c8;}.cls-2{fill:#0e0f26;}</style></defs><title>Sysdig_Secondary-Mark_web_footer_v2</title><path class="cls-1" d="M39.59,39.32l-3.42,3.41-10-10,1-1L22,26.46l-6.72,6.72-8.4-8.4C-1.42,16.53,3.4,3.13,3.4,3.13Z"/><path class="cls-2" d="M15.23,35.3,5.77,25.84C-3,17,1.78,3.21,2,2.62L2.22,2l.67-.24c.58-.21,14.39-5,23.21,3.78L35.56,15l-6.72,6.71L33,28l-5,5L22,28.58ZM4.59,4.33C3.8,7.06,1.44,17.27,7.89,23.71l7.34,7.35L22,24.34l5.24,5.23,2.65-2.65L24.6,21.68,31.32,15,24,7.62C17.53,1.18,7.33,3.54,4.59,4.33Z"/><path class="cls-2" d="M36.17,44.85,24,32.72l9-8.94L45.12,35.91ZM28.28,32.72l7.89,7.89,4.71-4.7L33,28Z"/><path class="cls-2" d="M9.87,13.59a13.22,13.22,0,0,1,.07-3.38L7.41,7.67a16.85,16.85,0,0,0-.52,6.25,12,12,0,0,0,3.33,7.47l3.95,4,2.12-2.13-3.95-3.95A9.18,9.18,0,0,1,9.87,13.59Z"/></svg>